<svg width="2757" height="2855" viewBox="0 0 2757 2855" fill="none" xmlns="http://www.w3.org/2000/svg">
<path d="M2757 1427.5C2757 2215.89 2139.82 2855 1378.5 2855C617.175 2855 0 2215.89 0 1427.5C0 639.114 617.175 0 1378.5 0C2139.82 0 2757 639.114 2757 1427.5Z" fill="#D9D9D9"/>
<path d="M1826.78 2073.76L1826.15 2060.46C1829.23 2064.78 1832.31 2069.1 1835.39 2073.43L1826.78 2073.76ZM2158.42 2145.67C2154.43 2120.48 2145.22 2102.15 2145.22 2102.15L1999.91 1779.87L2016.81 1768.64L1855.06 1453.08C1855.3 1452.18 1855.43 1451.67 1855.43 1451.67L1827.2 1435.54C1846.51 1334.45 1776.24 1246.9 1738.27 1215.96C1698.22 1183.37 1667 1150.8 1691.35 1062C1708.63 998.879 1683.76 908.829 1667.91 861.988C1668.23 848.369 1665.77 837.035 1660.25 830.647C1658.96 829.139 1657.58 827.923 1656.15 826.918H1656.17C1656.17 826.918 1657.84 791.767 1657.56 748.72C1665.72 744.099 1670.5 740.889 1671.86 739.948H1671.96C1671.96 739.916 1671.96 739.9 1671.98 739.883C1672.2 739.721 1672.33 739.624 1672.33 739.624L1672.01 739.592C1701.19 568.506 1596.39 477.466 1505.42 439.964C1469.05 424.951 1434.92 416.876 1412.44 412.725V382.001H1349.97V414.201C1272.98 432.555 1062.59 504.608 1091.03 739.948C1091.03 739.948 1095.33 743.418 1104.03 748.85C1100.45 797.669 1094.11 830.647 1094.11 830.647C1090.6 834.717 1088.36 840.813 1087.25 848.19C1072.15 888.822 1038.81 991.389 1057.39 1061.38C1081.01 1150.38 1049.52 1182.69 1009.23 1214.96C970.098 1246.3 893.325 1338.05 916.348 1442.37L899.974 1451.67C899.974 1451.67 900.229 1452.61 900.689 1454.26L717.819 1810.44L731.8 1816.95L603.645 2097.92C603.645 2097.92 602.545 2100.11 600.956 2103.91C597.119 2110.35 593.939 2117.18 591.742 2124.44C576.039 2176.31 582.53 2217.2 602.92 2250.28C640.839 2311.8 770.314 2332.56 872.26 2266.14C886.804 2256.66 903.523 2245.47 921.428 2233.31L900.349 2676.54H949.769L939.265 2781.01L1841.93 2772.33L1828.57 2676.54H1855.43L1837.82 2306.12C1882.2 2320.18 1924.86 2333.3 1957.71 2342.66C2074.72 2376.02 2153.42 2316.46 2171.48 2246.48C2179.53 2215.3 2176.82 2181.79 2158.42 2145.67Z" fill="#F78E5F"/>
<path d="M1321.7 904.568L1321.71 904.581C1321.7 904.541 1321.7 904.514 1321.69 904.474C1321.51 902.61 1321.18 900.866 1320.85 899.096C1313.61 857.549 1275.96 841.375 1237.86 840.128C1198.1 838.813 1181.59 856.422 1181.59 856.422C1195.22 877.705 1215.46 888.313 1215.46 888.313L1215.37 888.179C1223.77 894.737 1232.63 899.552 1241.54 902.945C1250.48 906.351 1259.44 908.39 1267.98 909.49C1297.5 913.285 1321.79 905.936 1321.79 905.936C1321.79 905.936 1321.78 905.413 1321.7 904.568Z" fill="#F5EAE5"/>
<path d="M1215.46 888.313L1215.37 888.179L1199.11 859.319C1211.58 855.483 1222.97 853.74 1233.38 853.498C1227.35 864.267 1228.14 878.027 1231.81 890.03C1234.09 895.019 1237.41 899.324 1241.54 902.945C1250.48 906.351 1259.44 908.39 1267.98 909.49C1271.02 909.356 1274.04 908.886 1276.96 907.853C1290.93 903.106 1299.64 892.297 1302.61 880.186C1315.58 892.498 1321.63 904.434 1321.7 904.568L1321.71 904.581C1321.7 904.541 1321.7 904.514 1321.69 904.474C1321.51 902.61 1321.18 900.866 1320.85 899.096C1313.61 857.549 1275.96 841.375 1237.86 840.128C1198.1 838.813 1181.59 856.422 1181.59 856.422C1195.22 877.705 1215.46 888.313 1215.46 888.313Z" fill="#1F224C"/>
<path d="M1522.84 840.405C1484.73 841.022 1446.83 856.572 1438.88 897.981C1438.55 899.75 1438.17 901.506 1437.95 903.37C1437.95 903.41 1437.93 903.437 1437.93 903.464V903.45C1437.85 904.295 1437.81 904.818 1437.81 904.818C1437.81 904.818 1462.01 912.566 1491.59 909.255C1500.13 908.303 1509.14 906.413 1518.12 903.155C1527.08 899.911 1536.03 895.233 1544.53 888.812L1544.44 888.959C1544.44 888.959 1564.85 878.691 1578.82 857.631C1578.82 857.631 1562.62 839.748 1522.84 840.405Z" fill="#F5EAE5"/>
<path d="M1438.88 897.981C1438.55 899.75 1438.17 901.506 1437.95 903.37C1437.95 903.41 1437.93 903.437 1437.93 903.464V903.45C1438 903.33 1444.26 891.493 1457.44 879.388C1460.21 891.546 1468.75 902.498 1482.63 907.485C1485.54 908.558 1488.55 909.08 1491.59 909.255C1500.13 908.303 1509.14 906.413 1518.12 903.155C1522.31 899.603 1525.71 895.34 1528.06 890.393C1531.93 878.463 1532.95 864.722 1527.09 853.837C1537.51 854.266 1548.88 856.196 1561.28 860.231L1544.53 888.812L1544.44 888.959C1544.44 888.959 1564.85 878.691 1578.82 857.631C1578.82 857.631 1562.62 839.748 1522.84 840.405C1484.73 841.022 1446.83 856.572 1438.88 897.981Z" fill="#1F224C"/>
<path d="M1406.64 2269.71C1399.09 2267.64 1392.78 2264.54 1387.56 2261.03C1386.24 2260.14 1385 2259.23 1383.81 2258.31L1382.7 2258.6V2257.38C1381.42 2256.34 1380.24 2255.28 1379.12 2254.22C1369.73 2245.28 1365.98 2236.39 1365.98 2236.39C1347.77 2228.7 1339.7 2210.99 1336.61 2201.74C1336.16 2200.36 1335.8 2199.19 1335.54 2198.24C1335.13 2196.76 1334.94 2195.84 1334.94 2195.84C1326.09 2191.02 1319.8 2186.14 1315.2 2181.46V2354.44H1440.58V2275.04C1419.97 2273.11 1406.64 2269.71 1406.64 2269.71Z" fill="#5C7AC6"/>
<path d="M2016.8 1768.64L1855.06 1453.07C1855.3 1452.18 1855.44 1451.67 1855.44 1451.67L1827.2 1435.54L1779.69 1408.4C1779.76 1407.58 1779.82 1406.72 1779.89 1405.91L1691.22 1352.36C1691.22 1352.36 1691.06 1354.19 1690.68 1357.56L1509.7 1254.2V1355.99L1380.58 1555.87L1252.77 1355.99V1251.31L1065.13 1357.87C1064.72 1354.31 1064.55 1352.36 1064.55 1352.36L975.883 1405.91C975.956 1406.74 976.016 1407.6 976.085 1408.44L899.967 1451.67C899.967 1451.67 900.22 1452.62 900.68 1454.26L717.812 1810.44L731.792 1816.95L931.507 1909.84L929.64 1938.55L934.925 1949.19L934.116 1966.23L1108.15 1919.68C1113.69 1907.31 1125.14 1882.44 1132.94 1870.63C1143.56 1854.55 1195.81 1814.59 1220.76 1803.54C1245.71 1792.5 1277.35 1788.24 1271.97 1820.48C1269.45 1835.55 1226.85 1864.08 1218.09 1882.56C1209.75 1900.16 1271.27 1916.32 1315.2 1902.22C1317.36 1901.52 1319.48 1900.78 1321.53 1899.94C1343.9 1890.8 1363.13 1876.72 1379.12 1864.04C1380.34 1863.08 1381.52 1862.14 1382.7 1861.19C1396.53 1850.08 1407.78 1840.46 1416.28 1836.88C1424.21 1833.54 1433.89 1833.47 1440.58 1838.31C1449.24 1844.56 1452.66 1859.19 1440.58 1885.8C1439.97 1887.12 1439.49 1888.36 1438.81 1889.75C1438.81 1889.75 1439.62 1890.7 1440.58 1892.43C1442.8 1896.5 1445.64 1905.18 1440.58 1917.83C1437.82 1924.74 1432.78 1932.78 1423.86 1941.94C1423.86 1941.94 1427.12 1972.24 1406.2 1989.84C1406.2 1989.84 1403.96 2012.94 1382.7 2029.74V2117.94C1394.58 2121.47 1407.21 2124.32 1420.3 2125.48C1426.89 2126.07 1433.73 2125.84 1440.58 2125.03C1482.98 2119.98 1525.9 2091.3 1514 2078.34C1500.18 2063.27 1451.05 2048.59 1444.2 2034.95C1441.74 2030.06 1440.68 2025.88 1440.58 2022.27C1440.56 2021.62 1440.53 2020.96 1440.58 2020.36C1441.84 2004 1466.36 2001.07 1488.12 2003.63C1515.21 2006.8 1576.93 2029.56 1591.84 2041.79C1602.78 2050.78 1621.06 2071.14 1630 2081.32L1826.77 2073.76L1821.77 1968.64L1828.9 1954.27L1827.64 1894.28L2016.8 1768.64Z" fill="#5C7AC6"/>
<path d="M1853.2 2629.55L1850.98 2583.06L1848.28 2526.16L1846.06 2479.64L1837.81 2306.12C1736.66 2274.12 1626.74 2237.42 1603.65 2229.68C1552.42 2276.86 1481.89 2278.94 1440.58 2275.04V2676.54H1855.44L1853.2 2629.55Z" fill="#F68712"/>
<path d="M1311.17 2093.22C1312.44 2093.35 1313.78 2093.56 1315.2 2093.87V2059.74C1276.64 2070.87 1225.39 2076.6 1177.15 2053.63C1153.11 2070.9 1019.07 2167 921.42 2233.31L909.709 2479.64L907.495 2526.16L904.793 2583.06L902.575 2629.55L900.34 2676.54H1315.2L1315.2 2181.46C1298.68 2164.64 1305.26 2150.39 1305.26 2150.39C1266.5 2109.32 1290.96 2091.2 1311.17 2093.22Z" fill="#F68712"/>
<path d="M1351.28 981.867L1351.32 981.827C1351.85 981.199 1357.26 975.373 1365.48 975.413C1368.98 975.426 1373.06 976.415 1377.75 979.381L1380.64 981.199V980.718L1380.77 980.865C1386.13 975.934 1391.23 974.504 1395.65 974.491C1399.33 974.491 1402.55 975.52 1404.83 976.562C1405.98 977.083 1406.91 977.604 1407.52 977.978L1408.19 978.433L1408.39 978.58L1410.69 975.6C1410.51 975.493 1404.41 970.763 1395.65 970.736C1391.1 970.723 1385.83 972.259 1380.64 976.228V846.746H1376.89V974.624C1372.78 972.553 1368.92 971.658 1365.48 971.658C1354.75 971.711 1348.54 979.328 1348.39 979.475L1351.28 981.867Z" fill="#1F224C"/>
<path d="M706.765 2027.06L934.116 1966.23L934.925 1949.19L929.64 1938.55L931.507 1909.84L731.792 1816.95L603.637 2097.92C603.637 2097.92 602.537 2100.11 600.949 2103.91C631.56 2052.51 706.765 2027.06 706.765 2027.06Z" fill="#5E4EAB"/>
<path d="M975.886 1405.91L1064.56 1352.36C1064.56 1352.36 1064.72 1354.3 1065.13 1357.87L1252.77 1251.31V1089.44C1222.32 1060.5 1197.52 1021.56 1181.12 976.121C1180.43 976.202 1179.82 976.335 1179.1 976.388C1115.08 981.863 1080.64 891.9 1087.24 848.181C1072.15 888.816 1038.81 991.385 1057.38 1061.37C1081 1150.37 1049.52 1182.69 1009.22 1214.96C970.092 1246.29 893.319 1338.06 916.342 1442.36L976.089 1408.43C976.02 1407.6 975.959 1406.73 975.886 1405.91Z" fill="#1F224C"/>
<path d="M1579.88 976.551C1563.72 1021.16 1539.46 1059.47 1509.7 1088.18V1254.2L1690.68 1357.56C1691.06 1354.19 1691.22 1352.36 1691.22 1352.36L1779.89 1405.91C1779.82 1406.72 1779.76 1407.58 1779.69 1408.4L1827.2 1435.54C1846.52 1334.46 1776.25 1246.9 1738.25 1215.96C1698.22 1183.36 1667 1150.8 1691.33 1061.99C1708.64 998.871 1683.74 908.831 1667.89 861.991C1666.82 907.111 1634.88 977.324 1579.88 976.551Z" fill="#1F224C"/>
<path d="M1828.89 1954.27L1821.76 1968.65L1826.14 2060.46C1829.22 2064.78 1832.3 2069.1 1835.37 2073.43L2045.19 2065.37C2045.19 2065.37 2106.88 2066.51 2144.99 2122.97C2150.17 2130.65 2154.59 2138.21 2158.39 2145.67C2154.41 2120.49 2145.2 2102.15 2145.2 2102.15L1999.9 1779.87L1827.63 1894.29L1828.89 1954.27Z" fill="#5E4EAB"/>
<path d="M1383.81 2258.31C1383.42 2258 1383.08 2257.68 1382.7 2257.38V2258.6L1383.81 2258.31Z" fill="#5C7AC6"/>
<path d="M1377.18 2033.7C1377.18 2033.7 1351.96 2049.14 1315.2 2059.74V2093.87C1329.65 2096.92 1352.28 2108.48 1379.12 2116.87V2032.34C1378.48 2032.79 1377.88 2033.26 1377.18 2033.7Z" fill="#5C7AC6"/>
<path d="M1438.81 1889.75C1438.81 1889.75 1439.62 1890.7 1440.58 1892.43V1885.8C1439.97 1887.12 1439.49 1888.36 1438.81 1889.75Z" fill="#5C7AC6"/>
<path d="M1379.12 2032.34V2116.87C1380.3 2117.24 1381.5 2117.59 1382.7 2117.94V2029.74C1381.57 2030.63 1380.36 2031.48 1379.12 2032.34Z" fill="#1F224C"/>
<path d="M1379.12 1588.51L1379.12 1864.04C1380.34 1863.08 1381.52 1862.14 1382.7 1861.19L1382.7 1588.51H1379.12Z" fill="#1F224C"/>
<path d="M1315.2 2276.34V2280.04L1379.12 2263.24V2349.8H1382.7V2262.3L1387.56 2261.03C1386.24 2260.14 1385 2259.23 1383.81 2258.31L1382.7 2258.6V2257.38C1381.42 2256.34 1380.24 2255.28 1379.12 2254.22V2259.54L1315.2 2276.34Z" fill="#1F224C"/>
<path d="M1315.2 2213.4L1336.61 2201.74C1336.16 2200.36 1335.8 2199.19 1335.54 2198.24L1315.2 2209.34V2213.4Z" fill="#1F224C"/>
<path d="M1519.17 1267.27L1515.89 1268.71L1635.26 1541.94C1635.97 1540.55 1636.66 1539.16 1637.34 1537.76L1519.17 1267.27Z" fill="#1F224C"/>
<path d="M1410.74 1563.94L1412.48 1567.06L1517.7 1508.48L1631.89 1548.52C1632.45 1547.44 1633 1546.38 1633.56 1545.31L1517.37 1504.58L1410.74 1563.94Z" fill="#1F224C"/>
<path d="M1249.92 1508.91L1355.14 1567.5L1356.89 1564.38L1250.26 1505L1130.31 1547.07L1251.73 1269.14L1248.45 1267.71L1124.92 1550.47C1125.26 1551.11 1125.6 1551.75 1125.94 1552.39L1249.92 1508.91Z" fill="#1F224C"/>
<path d="M1509.7 1088.18C1473.34 1123.26 1428.78 1143.99 1380.58 1143.99C1348.68 1143.99 1318.37 1134.87 1290.97 1118.56C1354.74 1165.88 1421.53 1206.08 1490.57 1254.98C1497.12 1259.56 1503.48 1264.02 1509.7 1268.42L1509.7 1088.18Z" fill="#5E4EAB"/>
<path d="M1660.24 830.647C1658.95 829.15 1657.57 827.937 1656.14 826.926L1602.07 862.564L1601.8 861.067C1601.26 876.547 1599.85 891.703 1597.6 906.481C1597.29 908.477 1596.91 910.446 1596.59 912.441C1592.81 934.865 1587.2 956.359 1579.88 976.558C1634.88 977.326 1666.82 907.101 1667.89 861.984C1668.21 848.379 1665.76 837.039 1660.24 830.647Z" fill="#5E4EAB"/>
<path d="M1619.72 891.844C1619.69 904.871 1616 915.897 1612.28 923.671C1610.41 927.577 1608.56 930.644 1607.17 932.737C1606.46 933.791 1605.89 934.577 1605.49 935.111L1604.89 935.897L1607.8 938.284C1607.92 938.111 1623.45 919.337 1623.48 891.711C1623.48 890.697 1623.44 889.657 1623.4 888.631C1624.42 887.724 1625.46 886.804 1626.49 885.911C1636.09 877.564 1645.12 869.937 1649.08 867.191L1646.93 864.111C1641.22 868.097 1627.14 880.271 1614.34 891.564C1608.01 897.151 1602.04 902.497 1597.6 906.471C1597.29 908.484 1596.92 910.444 1596.58 912.444C1597.57 911.551 1598.68 910.551 1599.97 909.391C1605.08 904.804 1612.29 898.364 1619.72 891.844Z" fill="#1F224C"/>
<path d="M1163.37 860.703C1163.37 860.703 1174.21 847.717 1188.81 826.284C1217.46 828.211 1309.96 825.013 1323.66 822.025C1335.8 819.372 1340.64 814.276 1341.84 812.782C1303.66 811.036 1270.04 806.401 1240.79 800.285C1237.32 800.662 1234.14 801.025 1231.4 801.388C1215.14 803.497 1203.98 809.096 1196.68 814.429C1200.97 807.811 1205.44 800.592 1209.96 792.927C1156.42 778.405 1121.4 759.723 1104.01 748.86C1100.43 797.674 1094.09 830.654 1094.09 830.654C1114.08 807.518 1150.92 846.237 1163.37 860.703Z" fill="#1F224C"/>
<path d="M1587.21 779.882L1601.8 861.067L1602.07 862.575L1656.14 826.926L1656.15 826.912C1656.15 826.912 1657.84 791.779 1657.55 748.729C1643.67 756.59 1620.07 768.446 1587.21 779.882Z" fill="#1F224C"/>
<path d="M1107.41 864.111L1105.27 867.191C1109.67 870.244 1120.22 879.231 1130.96 888.617C1130.91 889.657 1130.87 890.697 1130.87 891.711C1130.9 919.337 1146.43 938.111 1146.55 938.284L1149.45 935.897L1148.85 935.111C1146.06 931.391 1134.66 914.671 1134.63 891.844C1135.6 892.697 1136.57 893.537 1137.52 894.391C1143.9 900.017 1149.93 905.404 1154.37 909.391C1158.81 913.364 1161.65 915.937 1161.65 915.937L1164.17 913.164C1164.17 913.151 1152.78 902.844 1140.01 891.564C1127.2 880.271 1113.13 868.097 1107.41 864.111Z" fill="#1F224C"/>
<path d="M1447.53 1014.12C1445 1015.71 1422.22 1029.26 1383.17 1029.26C1364.36 1029.26 1341.77 1026.11 1315.82 1016.96L1314.57 1020.51C1340.92 1029.79 1363.94 1033 1383.17 1033C1425.77 1033 1449.62 1017.24 1449.84 1017.11L1447.76 1013.98L1447.53 1014.12Z" fill="#1F224C"/>
<path d="M1380.94 1044.84C1373.98 1044.84 1368.56 1043.9 1364.9 1042.94C1363.08 1042.47 1361.69 1042 1360.77 1041.66L1359.74 1041.24L1359.45 1041.11L1357.8 1044.48C1358 1044.58 1366.33 1048.6 1380.94 1048.6C1388.26 1048.6 1397.14 1047.59 1407.34 1044.59L1406.28 1040.99C1396.42 1043.9 1387.92 1044.84 1380.94 1044.84Z" fill="#1F224C"/>
<path d="M1436.23 820.977C1450.5 824.362 1551.07 829.521 1574.59 827.419C1574.59 827.419 1563.15 807.054 1528.85 801.99C1524.6 801.362 1519.38 800.68 1513.49 799.998C1485.53 805.73 1453.96 810.166 1418.92 812.227C1420.87 814.329 1425.82 818.506 1436.23 820.977Z" fill="#1F224C"/>
<path d="M1433.22 877.301L1433.34 876.952C1434.04 875.111 1437.72 866.267 1446.5 857.464C1455.29 848.661 1469.12 839.844 1490.43 837.855L1490.08 834.119C1466.38 836.296 1451.19 846.766 1442.05 856.671C1432.9 866.59 1429.71 875.93 1429.66 876.092L1433.22 877.301Z" fill="#1F224C"/>
<path d="M1315.58 860.235C1319.83 864.979 1322.66 869.588 1324.42 872.988C1325.32 874.681 1325.93 876.079 1326.32 877.046L1326.75 878.148L1326.87 878.498L1330.46 877.342C1330.39 877.181 1327.37 867.801 1318.38 857.722C1309.4 847.657 1294.39 836.946 1270.72 834.38L1270.32 838.116C1293.02 840.602 1307.07 850.721 1315.58 860.235Z" fill="#1F224C"/>
<path d="M1828.54 2676.54H1440.58V2354.44H1315.2L1315.2 2676.54H949.76L939.265 2781.01C939.265 2781.01 968.721 2791.04 988 2796.92C1007.28 2802.8 1038 2811.12 1038 2811.12C1038 2811.12 1072.74 2819.96 1095 2824.78C1117.26 2829.6 1152 2835.82 1152 2835.82C1152 2835.82 1158.85 2837.61 1207.5 2844.12C1256.15 2850.64 1263.5 2850.1 1263.5 2850.1L1292 2852.24L1320.5 2853.76L1349.5 2854.69L1378.5 2855H1402.5L1426.5 2854.15L1450.5 2853.09L1474.5 2851.59L1497.5 2849.76L1520.67 2847.5L1544 2844.82L1567 2841.76L1589.5 2838.38L1612.5 2834.52L1634.5 2830.43L1657 2825.85L1679.5 2820.87L1701.89 2815.5L1724 2809.79L1746 2803.71L1770 2796.61L1794.04 2789L1818 2780.91L1841.93 2772.33L1828.54 2676.54Z" fill="#1F224C"/>
<path d="M1347.86 2424.44H1417.76V2354.44H1347.86V2424.44Z" fill="#FBC775"/>
<path d="M1125.94 1552.39C1125.6 1551.75 1125.26 1551.11 1124.92 1550.47C1080.1 1465.8 1067.7 1380.03 1065.13 1357.87C1064.72 1354.31 1064.55 1352.36 1064.55 1352.36L975.883 1405.91C975.956 1406.74 976.016 1407.6 976.085 1408.44C986.864 1539.83 937.409 1896.95 937.409 1896.95L934.925 1949.19L934.116 1966.23L1108.15 1919.68C1113.69 1907.31 1125.14 1882.44 1132.94 1870.63C1143.56 1854.55 1195.81 1814.59 1220.76 1803.54C1245.71 1792.5 1277.35 1788.24 1271.97 1820.48C1269.45 1835.55 1226.85 1864.08 1218.09 1882.56C1209.75 1900.16 1271.27 1916.32 1315.2 1902.22L1315.2 1721.51C1221.97 1689.91 1163.04 1621.7 1125.94 1552.39Z" fill="#F68712"/>
<path d="M1315.2 2629.55V2583.06H904.793L902.575 2629.55H1315.2Z" fill="#FBC775"/>
<path d="M1315.2 2526.16V2479.64H909.709L907.495 2526.16H1315.2Z" fill="#FBC775"/>
<path d="M1821.77 1968.64L1818.37 1896.95C1818.37 1896.95 1768.9 1539.76 1779.69 1408.4C1779.76 1407.58 1779.82 1406.72 1779.89 1405.91L1691.22 1352.36C1691.22 1352.36 1691.06 1354.19 1690.68 1357.56C1688.3 1378.19 1677.08 1457.02 1637.34 1537.76C1636.66 1539.16 1635.97 1540.55 1635.26 1541.94C1634.7 1543.07 1634.13 1544.19 1633.56 1545.31C1633 1546.38 1632.45 1547.44 1631.89 1548.52C1594.93 1619.14 1535.54 1689.32 1440.58 1721.51L1440.58 1838.31C1449.24 1844.56 1452.66 1859.19 1440.58 1885.8V1892.43C1442.8 1896.5 1445.64 1905.18 1440.58 1917.83V2020.36C1441.84 2004 1466.36 2001.07 1488.12 2003.63C1515.21 2006.8 1576.93 2029.56 1591.84 2041.79C1602.78 2050.78 1621.06 2071.14 1630 2081.32L1826.77 2073.76L1821.77 1968.64Z" fill="#F68712"/>
<path d="M1514 2078.34C1500.18 2063.27 1451.05 2048.59 1444.2 2034.95C1441.74 2030.06 1440.68 2025.88 1440.58 2022.27V2125.03C1482.98 2119.98 1525.9 2091.3 1514 2078.34Z" fill="#F68712"/>
<path d="M1382.7 2258.6L1383.81 2258.31C1383.42 2258 1383.08 2257.68 1382.7 2257.38V2258.6Z" fill="#F68712"/>
<path d="M1440.58 2583.06V2629.55H1853.2L1850.98 2583.06H1440.58Z" fill="#FBC775"/>
<path d="M1440.58 2479.64V2526.16H1848.28L1846.06 2479.64H1440.58Z" fill="#FBC775"/>
<path d="M1432.13 1894.19L1429.4 1892.19L1429.05 1892.64C1425.34 1897.35 1392.17 1937.02 1313.3 1954.96L1314.06 1958.26C1399.12 1938.92 1431.97 1894.43 1432.13 1894.19Z" fill="#1F224C"/>
<path d="M1416.08 1945.27C1416.08 1945.27 1415.62 1945.83 1414.66 1946.9C1407.92 1954.39 1377.17 1985.55 1322.52 1998.78L1323.32 2002.07C1386.82 1986.67 1418.57 1947.56 1418.7 1947.4L1416.08 1945.27Z" fill="#1F224C"/>
<path d="M1396.85 1994.31C1396.85 1994.32 1396.42 1994.72 1395.54 1995.47C1389.4 2000.78 1362.14 2022.7 1325.14 2030.46L1325.84 2033.76C1369.18 2024.64 1399.04 1996.9 1399.16 1996.8L1396.86 1994.31H1396.85Z" fill="#1F224C"/>
<path d="M1421.77 2179.9C1429.05 2179.9 1436.68 2179.62 1444.68 2179L1444.42 2175.63C1436.5 2176.23 1428.96 2176.51 1421.77 2176.51C1386.26 2176.51 1359.52 2169.83 1341.66 2163.16C1332.74 2159.83 1326.04 2156.51 1321.58 2154.03C1319.36 2152.79 1317.69 2151.75 1316.58 2151.04L1315.34 2150.22L1314.97 2149.95L1312.96 2152.67C1313.16 2152.83 1349.89 2179.9 1421.77 2179.9Z" fill="#1F224C"/>
<path d="M1435.88 2223.99C1440.06 2223.99 1444.36 2223.86 1448.77 2223.59L1448.56 2220.2C1444.22 2220.47 1440 2220.6 1435.88 2220.6C1407.45 2220.6 1384.29 2214.6 1368.25 2208.62C1360.22 2205.63 1353.98 2202.64 1349.76 2200.4C1347.65 2199.28 1346.04 2198.35 1344.97 2197.71C1343.89 2197.07 1343.37 2196.71 1343.37 2196.71L1341.49 2199.54C1341.65 2199.64 1378.08 2223.98 1435.88 2223.99Z" fill="#1F224C"/>
<path d="M1442.3 2251.84C1423.78 2251.84 1407.22 2248.35 1395.32 2244.86C1389.37 2243.11 1384.57 2241.36 1381.28 2240.06C1379.64 2239.4 1378.36 2238.86 1377.5 2238.48C1376.65 2238.11 1376.22 2237.9 1376.22 2237.9L1374.76 2240.95C1374.89 2241 1404.41 2255.22 1442.3 2255.23C1446.68 2255.23 1451.16 2255.04 1455.73 2254.62L1455.41 2251.24C1450.96 2251.66 1446.57 2251.84 1442.3 2251.84Z" fill="#1F224C"/>
<path d="M1505.42 439.964C1469.04 424.951 1434.92 416.876 1412.42 412.725V382H1349.96V414.201C1272.97 432.554 1062.58 504.608 1091.02 739.948C1091.02 739.948 1095.32 743.418 1104.02 748.849C1121.4 759.712 1156.42 778.391 1209.96 792.918C1219.63 795.528 1229.92 797.993 1240.79 800.279C1270.05 806.391 1303.66 811.028 1341.85 812.763C1352.69 813.266 1363.88 813.542 1375.45 813.542C1390.52 813.542 1404.97 813.055 1418.93 812.228C1453.96 810.153 1485.53 805.727 1513.5 799.987C1541.73 794.199 1566.36 787.129 1587.21 779.882C1620.08 768.451 1643.67 756.583 1657.54 748.72C1665.7 744.099 1670.48 740.905 1671.86 739.948L1671.94 739.948C1671.96 739.916 1671.96 739.899 1671.96 739.883C1672.19 739.721 1672.32 739.624 1672.32 739.624L1671.99 739.591C1701.19 568.505 1596.37 477.466 1505.42 439.964Z" fill="#F5EAE5"/>
<path d="M1505.42 439.974C1469.03 424.958 1434.91 416.898 1412.42 412.731V538.336L1505.42 439.974Z" fill="#5E4EAB"/>
</svg>
